<svg width="22" height="20" viewBox="0 0 22 20" fill="none" xmlns="http://www.w3.org/2000/svg">
<g filter="url(#filter0_d_57_1114)">
<path d="M9.19692 12.025H7.73025V7.25925H9.19692V12.025ZM8.46358 6.64783C7.93467 6.64783 7.66975 6.40308 7.66975 5.9145C7.66811 5.81645 7.68775 5.71921 7.72731 5.62948C7.76687 5.53975 7.82542 5.45967 7.89892 5.39475C8.05177 5.25214 8.25461 5.17542 8.46358 5.18117C8.9925 5.18117 9.25742 5.42683 9.25742 5.91542C9.25742 6.404 8.99342 6.64783 8.46358 6.64783ZM14.6364 12.025H13.1395V9.36667C13.1395 8.67458 12.8938 8.32808 12.4053 8.32808C12.0184 8.32808 11.7645 8.5215 11.6408 8.90833C11.6013 8.96975 11.5803 9.09258 11.5803 9.275V12.025H10.0833V8.78642C10.0833 8.05308 10.0723 7.54433 10.0531 7.25925H11.3364L11.4281 7.9C11.7645 7.39033 12.2531 7.13642 12.925 7.13642C13.4356 7.13642 13.8472 7.31425 14.1625 7.67083C14.4797 8.02742 14.6373 8.54167 14.6373 9.2145V12.025H14.6364ZM11 17.25C6.45058 17.25 2.75 13.5494 2.75 9C2.75 4.45058 6.45058 0.75 11 0.75C15.5494 0.75 19.25 4.45058 19.25 9C19.25 13.5494 15.5494 17.25 11 17.25ZM11 2.58333C7.46258 2.58333 4.58333 5.46258 4.58333 9C4.58333 12.5374 7.46258 15.4167 11 15.4167C14.5374 15.4167 17.4167 12.5374 17.4167 9C17.4167 5.46258 14.5374 2.58333 11 2.58333Z" fill="black"/>
</g>
<defs>
<filter id="filter0_d_57_1114" x="-1.25" y="0.75" width="24.5" height="24.5" filterUnits="userSpaceOnUse" color-interpolation-filters="sRGB">
<feFlood flood-opacity="0" result="BackgroundImageFix"/>
<feColorMatrix in="SourceAlpha" type="matrix" values="0 0 0 0 0 0 0 0 0 0 0 0 0 0 0 0 0 0 127 0" result="hardAlpha"/>
<feOffset dy="4"/>
<feGaussianBlur stdDeviation="2"/>
<feComposite in2="hardAlpha" operator="out"/>
<feColorMatrix type="matrix" values="0 0 0 0 0 0 0 0 0 0 0 0 0 0 0 0 0 0 0.25 0"/>
<feBlend mode="normal" in2="BackgroundImageFix" result="effect1_dropShadow_57_1114"/>
<feBlend mode="normal" in="SourceGraphic" in2="effect1_dropShadow_57_1114" result="shape"/>
</filter>
</defs>
</svg>
